<svg xmlns="http://www.w3.org/2000/svg" xmlns:xlink="http://www.w3.org/1999/xlink" width="500" zoomAndPan="magnify" viewBox="0 0 375 374.999991" height="500" preserveAspectRatio="xMidYMid meet" version="1.0"><defs><clipPath id="f6bf8d3925"><path d="M 2.035156 53.289062 L 373.285156 53.289062 L 373.285156 321.789062 L 2.035156 321.789062 Z M 2.035156 53.289062 " clip-rule="nonzero"/></clipPath></defs><g clip-path="url(#f6bf8d3925)"><path fill="#005dbd" d="M 365.59375 321.6875 L 9.722656 321.6875 C 5.539062 321.6875 2.035156 318.183594 2.035156 314.003906 C 2.035156 309.824219 5.539062 306.320312 9.722656 306.320312 L 57.882812 306.320312 C 38.1875 279.085938 27.800781 246.996094 27.800781 213.15625 C 27.800781 125.117188 99.433594 53.390625 187.660156 53.390625 C 275.882812 53.390625 347.515625 124.980469 347.515625 213.15625 C 347.515625 246.996094 337.128906 279.085938 317.433594 306.320312 L 365.59375 306.320312 C 369.777344 306.320312 373.285156 309.824219 373.285156 314.003906 C 373.285156 318.320312 369.777344 321.6875 365.59375 321.6875 Z M 9.722656 311.980469 C 8.507812 311.980469 7.5625 312.925781 7.5625 314.140625 C 7.5625 315.351562 8.507812 316.296875 9.722656 316.296875 L 365.460938 316.296875 C 366.671875 316.296875 367.617188 315.351562 367.617188 314.140625 C 367.617188 312.925781 366.671875 311.980469 365.460938 311.980469 L 311.769531 311.980469 C 310.6875 311.980469 309.746094 311.441406 309.339844 310.5 C 308.933594 309.554688 308.933594 308.476562 309.609375 307.53125 C 330.65625 280.296875 341.851562 247.804688 341.851562 213.289062 C 341.851562 128.21875 272.648438 59.050781 187.523438 59.050781 C 102.402344 59.050781 33.195312 128.21875 33.195312 213.289062 C 33.195312 247.671875 44.394531 280.296875 65.4375 307.53125 C 66.113281 308.339844 66.246094 309.554688 65.707031 310.5 C 65.300781 311.441406 64.222656 311.980469 63.277344 311.980469 Z M 299.222656 311.980469 L 76.09375 311.980469 C 75.285156 311.980469 74.476562 311.578125 73.9375 311.039062 C 50.464844 283.804688 37.648438 249.152344 37.648438 213.289062 C 37.648438 130.644531 104.964844 63.367188 187.660156 63.367188 C 270.351562 63.367188 337.667969 130.644531 337.667969 213.289062 C 337.667969 249.152344 324.71875 283.804688 301.378906 311.039062 C 300.839844 311.578125 300.03125 311.980469 299.222656 311.980469 Z M 77.445312 306.453125 L 298.007812 306.453125 C 319.996094 280.433594 332.136719 247.402344 332.136719 213.289062 C 332.136719 133.746094 267.386719 68.894531 187.660156 68.894531 C 107.929688 68.894531 43.179688 133.609375 43.179688 213.289062 C 43.179688 247.402344 55.320312 280.433594 77.445312 306.453125 Z M 77.445312 306.453125 " fill-opacity="1" fill-rule="nonzero"/></g><path fill="#005dbd" d="M 226.644531 266.410156 L 172.414062 266.410156 C 162.835938 266.410156 154.878906 258.59375 154.878906 248.882812 C 154.878906 239.175781 162.703125 231.355469 172.414062 231.355469 L 226.644531 231.355469 C 236.222656 231.355469 244.183594 239.175781 244.183594 248.882812 C 244.183594 258.59375 236.222656 266.410156 226.644531 266.410156 Z M 172.414062 237.019531 C 165.804688 237.019531 160.410156 242.414062 160.410156 249.019531 C 160.410156 255.625 165.804688 261.019531 172.414062 261.019531 L 226.644531 261.019531 C 233.253906 261.019531 238.652344 255.625 238.652344 249.019531 C 238.652344 242.414062 233.253906 237.019531 226.644531 237.019531 Z M 172.414062 237.019531 " fill-opacity="1" fill-rule="nonzero"/><path fill="#005dbd" d="M 161.621094 311.847656 C 160.8125 311.847656 160.003906 311.710938 159.195312 311.441406 C 157.304688 310.769531 155.6875 309.421875 154.742188 307.53125 C 153.796875 305.644531 153.664062 303.621094 154.335938 301.734375 L 167.421875 262.636719 C 167.828125 261.289062 169.175781 260.613281 170.527344 260.75 C 171.066406 260.882812 171.738281 260.882812 172.414062 260.882812 L 180.375 260.882812 C 181.316406 260.882812 182.128906 261.289062 182.667969 262.097656 C 183.207031 262.769531 183.339844 263.714844 183.070312 264.523438 L 169.042969 306.589844 C 167.960938 309.691406 164.996094 311.847656 161.621094 311.847656 Z M 172.011719 266.410156 L 159.597656 303.488281 C 159.464844 304.027344 159.464844 304.566406 159.734375 305.105469 C 160.003906 305.644531 160.410156 306.050781 160.949219 306.183594 C 162.027344 306.589844 163.242188 305.914062 163.644531 304.835938 L 176.460938 266.410156 L 172.28125 266.410156 C 172.28125 266.410156 172.144531 266.410156 172.011719 266.410156 Z M 172.011719 266.410156 " fill-opacity="1" fill-rule="nonzero"/><path fill="#005dbd" d="M 237.300781 311.847656 C 234.066406 311.847656 231.097656 309.691406 230.019531 306.589844 L 215.988281 264.523438 C 215.71875 263.714844 215.851562 262.769531 216.390625 262.097656 C 216.933594 261.421875 217.742188 260.882812 218.6875 260.882812 L 226.644531 260.882812 C 227.320312 260.882812 227.859375 260.882812 228.535156 260.75 C 229.882812 260.480469 231.230469 261.289062 231.636719 262.636719 L 244.722656 301.734375 C 245.394531 303.621094 245.261719 305.78125 244.316406 307.53125 C 243.371094 309.421875 241.890625 310.769531 239.867188 311.441406 C 238.921875 311.710938 238.113281 311.847656 237.300781 311.847656 Z M 222.464844 266.410156 L 235.277344 304.835938 C 235.683594 305.914062 236.898438 306.589844 237.976562 306.183594 C 238.515625 306.050781 238.921875 305.644531 239.191406 305.105469 C 239.460938 304.566406 239.460938 304.027344 239.324219 303.488281 L 226.914062 266.410156 C 226.78125 266.410156 226.644531 266.410156 226.511719 266.410156 Z M 222.464844 266.410156 " fill-opacity="1" fill-rule="nonzero"/><path fill="#005dbd" d="M 234.335938 239.175781 C 233.792969 239.175781 233.390625 239.042969 232.851562 238.773438 C 230.960938 237.695312 228.804688 237.019531 226.644531 237.019531 L 206.949219 237.019531 C 205.734375 237.019531 204.65625 236.210938 204.25 234.996094 L 186.445312 166.910156 C 186.175781 166.101562 186.445312 165.160156 186.984375 164.484375 C 187.523438 163.8125 188.332031 163.40625 189.140625 163.40625 L 210.589844 163.40625 C 211.804688 163.40625 213.019531 164.214844 213.289062 165.429688 C 213.425781 165.832031 214.773438 170.28125 220.84375 170.28125 C 227.183594 170.28125 228.398438 165.429688 228.398438 165.429688 C 228.667969 164.214844 229.882812 163.40625 231.097656 163.40625 L 252.546875 163.40625 C 253.355469 163.40625 254.164062 163.8125 254.703125 164.484375 C 255.246094 165.160156 255.378906 166.101562 255.246094 166.910156 L 236.898438 237.019531 C 236.628906 237.828125 236.089844 238.503906 235.277344 238.90625 C 235.007812 239.042969 234.605469 239.175781 234.335938 239.175781 Z M 209.109375 231.492188 L 226.644531 231.492188 C 228.667969 231.492188 230.558594 231.761719 232.445312 232.4375 L 249.039062 169.070312 L 232.984375 169.070312 C 231.367188 172.167969 227.589844 176.078125 220.84375 176.078125 C 214.097656 176.078125 210.320312 172.304688 208.703125 169.070312 L 192.648438 169.070312 Z M 209.109375 231.492188 " fill-opacity="1" fill-rule="nonzero"/><path fill="#005dbd" d="M 130.054688 283.128906 L 56.667969 283.128906 C 55.589844 283.128906 54.644531 282.589844 54.242188 281.648438 C 43.3125 260.34375 37.78125 237.425781 37.78125 213.289062 C 37.78125 211.808594 38.996094 210.460938 40.617188 210.460938 L 137.609375 210.460938 C 139.09375 210.460938 140.441406 211.671875 140.441406 213.289062 L 140.441406 272.882812 C 140.308594 278.546875 135.722656 283.128906 130.054688 283.128906 Z M 58.289062 277.46875 L 130.054688 277.46875 C 132.617188 277.46875 134.777344 275.445312 134.777344 272.75 L 134.777344 215.851562 L 43.3125 215.851562 C 43.582031 237.695312 48.710938 258.320312 58.289062 277.46875 Z M 58.289062 277.46875 " fill-opacity="1" fill-rule="nonzero"/><path fill="#005dbd" d="M 104.964844 234.863281 L 42.234375 234.863281 C 40.75 234.863281 39.402344 233.648438 39.402344 232.03125 L 39.402344 213.289062 C 39.402344 211.808594 40.617188 210.460938 42.234375 210.460938 L 104.964844 210.460938 C 106.449219 210.460938 107.796875 211.671875 107.796875 213.289062 L 107.796875 232.03125 C 107.796875 233.648438 106.449219 234.863281 104.964844 234.863281 Z M 45.066406 229.335938 L 102.265625 229.335938 L 102.265625 216.121094 L 45.066406 216.121094 Z M 45.066406 229.335938 " fill-opacity="1" fill-rule="nonzero"/><path fill="#005dbd" d="M 73.667969 224.480469 C 70.832031 224.480469 68.675781 222.1875 68.675781 219.492188 C 68.675781 216.660156 70.96875 214.503906 73.667969 214.503906 C 76.5 214.503906 78.65625 216.796875 78.65625 219.492188 C 78.65625 222.1875 76.363281 224.480469 73.667969 224.480469 Z M 73.667969 218.820312 C 73.398438 218.820312 73.125 219.089844 73.125 219.359375 C 73.125 219.628906 73.398438 219.898438 73.667969 219.898438 C 73.9375 219.898438 74.207031 219.628906 74.207031 219.359375 C 74.207031 219.089844 73.9375 218.820312 73.667969 218.820312 Z M 73.667969 218.820312 " fill-opacity="1" fill-rule="nonzero"/><path fill="#005dbd" d="M 90.664062 215.988281 L 56.667969 215.988281 C 55.183594 215.988281 53.835938 214.773438 53.835938 213.15625 L 53.835938 212.75 C 53.835938 201.832031 62.738281 193.066406 73.53125 193.066406 C 84.457031 193.066406 93.226562 201.964844 93.226562 212.75 L 93.226562 213.289062 C 93.363281 214.773438 92.148438 215.988281 90.664062 215.988281 Z M 59.636719 210.460938 L 87.695312 210.460938 C 86.617188 203.71875 80.679688 198.59375 73.667969 198.59375 C 66.515625 198.59375 60.714844 203.71875 59.636719 210.460938 Z M 59.636719 210.460938 " fill-opacity="1" fill-rule="nonzero"/><path fill="#005dbd" d="M 97.410156 165.96875 C 96.734375 165.96875 95.925781 165.699219 95.386719 165.160156 L 94.980469 164.753906 C 87.292969 157.070312 87.292969 144.53125 94.980469 136.847656 C 98.757812 133.070312 103.613281 131.046875 108.875 131.046875 C 114.136719 131.046875 119.128906 133.070312 122.769531 136.847656 L 123.175781 137.25 C 124.253906 138.328125 124.253906 140.082031 123.175781 141.160156 L 99.164062 165.160156 C 98.894531 165.699219 98.082031 165.96875 97.410156 165.96875 Z M 109.144531 136.710938 C 105.367188 136.710938 101.726562 138.195312 99.164062 140.890625 C 94.171875 145.878906 93.632812 153.699219 97.679688 159.226562 L 117.507812 139.40625 C 114.945312 137.519531 112.113281 136.710938 109.144531 136.710938 Z M 109.144531 136.710938 " fill-opacity="1" fill-rule="nonzero"/><path fill="#005dbd" d="M 118.050781 162.597656 C 117.375 162.597656 116.566406 162.328125 116.027344 161.789062 L 111.035156 156.800781 C 109.953125 155.722656 109.953125 153.96875 111.035156 152.890625 C 112.113281 151.8125 113.867188 151.8125 114.945312 152.890625 L 119.9375 157.878906 C 121.015625 158.957031 121.015625 160.710938 119.9375 161.789062 C 119.53125 162.328125 118.859375 162.597656 118.050781 162.597656 Z M 118.050781 162.597656 " fill-opacity="1" fill-rule="nonzero"/><path fill="#005dbd" d="M 107.121094 173.519531 C 106.042969 173.519531 104.964844 172.84375 104.558594 171.765625 L 101.726562 164.621094 C 101.1875 163.269531 101.859375 161.652344 103.210938 160.980469 C 104.558594 160.441406 106.175781 161.113281 106.851562 162.460938 L 109.683594 169.609375 C 110.226562 170.957031 109.550781 172.574219 108.203125 173.25 C 107.796875 173.519531 107.527344 173.519531 107.121094 173.519531 Z M 107.121094 173.519531 " fill-opacity="1" fill-rule="nonzero"/><path fill="#005dbd" d="M 128.976562 151.675781 C 128.570312 151.675781 128.300781 151.675781 127.898438 151.40625 L 120.746094 148.574219 C 119.261719 148.035156 118.589844 146.417969 119.261719 144.933594 C 119.804688 143.453125 121.421875 142.777344 122.90625 143.453125 L 130.054688 146.285156 C 131.539062 146.824219 132.214844 148.441406 131.539062 149.921875 C 131.132812 151.003906 130.054688 151.675781 128.976562 151.675781 Z M 128.976562 151.675781 " fill-opacity="1" fill-rule="nonzero"/><path fill="#005dbd" d="M 73.667969 176.753906 C 69.347656 176.753906 65.84375 173.25 65.84375 168.933594 C 65.84375 164.621094 69.347656 161.113281 73.667969 161.113281 C 77.984375 161.113281 81.492188 164.621094 81.492188 168.933594 C 81.492188 173.25 77.984375 176.753906 73.667969 176.753906 Z M 73.667969 166.777344 C 72.453125 166.777344 71.371094 167.855469 71.371094 169.070312 C 71.371094 170.28125 72.453125 171.359375 73.667969 171.359375 C 74.878906 171.359375 75.960938 170.28125 75.960938 169.070312 C 75.960938 167.71875 74.878906 166.777344 73.667969 166.777344 Z M 73.667969 166.777344 " fill-opacity="1" fill-rule="nonzero"/><path fill="#005dbd" d="M 73.667969 166.777344 C 72.992188 166.777344 72.316406 166.507812 71.777344 165.96875 C 70.699219 164.890625 70.5625 163.136719 71.644531 162.058594 L 95.117188 136.980469 C 96.195312 135.902344 97.949219 135.765625 99.027344 136.847656 C 100.105469 137.925781 100.242188 139.675781 99.164062 140.753906 L 75.691406 165.832031 C 75.148438 166.371094 74.339844 166.777344 73.667969 166.777344 Z M 73.667969 166.777344 " fill-opacity="1" fill-rule="nonzero"/><path fill="#005dbd" d="M 73.667969 198.59375 C 72.183594 198.59375 70.832031 197.382812 70.832031 195.765625 L 70.832031 173.921875 C 70.832031 172.4375 72.046875 171.089844 73.667969 171.089844 C 75.148438 171.089844 76.5 172.304688 76.5 173.921875 L 76.5 195.765625 C 76.363281 197.382812 75.148438 198.59375 73.667969 198.59375 Z M 73.667969 198.59375 " fill-opacity="1" fill-rule="nonzero"/><path fill="#005dbd" d="M 122.230469 311.847656 C 121.152344 311.847656 120.207031 311.308594 119.667969 310.230469 L 105.90625 281.511719 C 105.503906 280.703125 105.503906 279.625 106.042969 278.816406 C 106.582031 278.007812 107.390625 277.46875 108.335938 277.46875 L 122.097656 277.46875 C 123.578125 277.46875 124.929688 278.679688 124.929688 280.296875 L 124.929688 309.015625 C 124.929688 310.363281 123.984375 311.441406 122.769531 311.710938 C 122.636719 311.847656 122.367188 311.847656 122.230469 311.847656 Z M 112.789062 283.128906 L 119.398438 296.882812 L 119.398438 283.128906 Z M 112.789062 283.128906 " fill-opacity="1" fill-rule="nonzero"/><path fill="#005dbd" d="M 332.003906 187 L 268.195312 187 C 264.011719 187 260.503906 183.496094 260.503906 179.316406 L 260.503906 87.097656 C 260.503906 86.152344 261.046875 85.207031 261.855469 84.667969 C 262.664062 84.128906 263.742188 84.128906 264.6875 84.667969 C 268.058594 86.691406 271.433594 88.847656 274.671875 91.277344 C 275.34375 91.816406 275.882812 92.625 275.882812 93.566406 L 275.882812 171.765625 L 329.710938 171.765625 C 330.925781 171.765625 332.003906 172.574219 332.40625 173.789062 C 333.351562 177.023438 334.160156 180.394531 334.835938 183.765625 C 334.972656 184.574219 334.835938 185.382812 334.296875 186.054688 C 333.621094 186.597656 332.8125 187 332.003906 187 Z M 266.035156 92.085938 L 266.035156 179.316406 C 266.035156 180.527344 266.980469 181.472656 268.195312 181.472656 L 328.496094 181.472656 C 328.226562 179.988281 327.820312 178.640625 327.417969 177.160156 L 273.1875 177.160156 C 271.703125 177.160156 270.351562 175.945312 270.351562 174.328125 L 270.351562 94.914062 C 269.003906 93.972656 267.519531 93.027344 266.035156 92.085938 Z M 266.035156 92.085938 " fill-opacity="1" fill-rule="nonzero"/></svg>