<svg xmlns="http://www.w3.org/2000/svg" xmlns:xlink="http://www.w3.org/1999/xlink" width="500" zoomAndPan="magnify" viewBox="0 0 375 374.999991" height="500" preserveAspectRatio="xMidYMid meet" version="1.0"><defs><g/><clipPath id="d79edd7790"><path d="M 83.707031 71.125 L 291.457031 71.125 L 291.457031 221.125 L 83.707031 221.125 Z M 83.707031 71.125 " clip-rule="nonzero"/></clipPath></defs><g clip-path="url(#d79edd7790)"><path fill="#009cff" d="M 287.152344 221.074219 L 88.007812 221.074219 C 85.667969 221.074219 83.707031 219.113281 83.707031 216.78125 C 83.707031 214.445312 85.667969 212.488281 88.007812 212.488281 L 114.960938 212.488281 C 103.9375 197.269531 98.125 179.34375 98.125 160.4375 C 98.125 111.25 138.210938 71.175781 187.582031 71.175781 C 236.953125 71.175781 277.039062 111.175781 277.039062 160.4375 C 277.039062 179.34375 271.226562 197.269531 260.203125 212.488281 L 287.152344 212.488281 C 289.492188 212.488281 291.457031 214.445312 291.457031 216.78125 C 291.457031 219.191406 289.492188 221.074219 287.152344 221.074219 Z M 88.007812 215.648438 C 87.328125 215.648438 86.800781 216.175781 86.800781 216.855469 C 86.800781 217.535156 87.328125 218.0625 88.007812 218.0625 L 287.078125 218.0625 C 287.757812 218.0625 288.285156 217.535156 288.285156 216.855469 C 288.285156 216.175781 287.757812 215.648438 287.078125 215.648438 L 257.03125 215.648438 C 256.429688 215.648438 255.898438 215.347656 255.671875 214.820312 C 255.449219 214.292969 255.449219 213.691406 255.824219 213.164062 C 267.601562 197.949219 273.867188 179.796875 273.867188 160.511719 C 273.867188 112.980469 235.140625 74.339844 187.503906 74.339844 C 139.871094 74.339844 101.144531 112.980469 101.144531 160.511719 C 101.144531 179.71875 107.410156 197.949219 119.1875 213.164062 C 119.5625 213.617188 119.640625 214.292969 119.335938 214.820312 C 119.113281 215.347656 118.507812 215.648438 117.980469 215.648438 Z M 250.011719 215.648438 L 125.152344 215.648438 C 124.699219 215.648438 124.246094 215.425781 123.941406 215.121094 C 110.808594 199.90625 103.636719 180.546875 103.636719 160.511719 C 103.636719 114.339844 141.304688 76.75 187.582031 76.75 C 233.855469 76.75 271.527344 114.339844 271.527344 160.511719 C 271.527344 180.546875 264.28125 199.90625 251.21875 215.121094 C 250.917969 215.425781 250.464844 215.648438 250.011719 215.648438 Z M 125.90625 212.5625 L 249.332031 212.5625 C 261.636719 198.023438 268.429688 179.570312 268.429688 160.511719 C 268.429688 116.070312 232.195312 79.839844 187.582031 79.839844 C 142.964844 79.839844 106.730469 115.996094 106.730469 160.511719 C 106.730469 179.570312 113.523438 198.023438 125.90625 212.5625 Z M 125.90625 212.5625 " fill-opacity="1" fill-rule="nonzero"/></g><path fill="#009cff" d="M 209.398438 190.191406 L 179.050781 190.191406 C 173.691406 190.191406 169.238281 185.820312 169.238281 180.398438 C 169.238281 174.976562 173.617188 170.605469 179.050781 170.605469 L 209.398438 170.605469 C 214.757812 170.605469 219.210938 174.976562 219.210938 180.398438 C 219.210938 185.820312 214.757812 190.191406 209.398438 190.191406 Z M 179.050781 173.769531 C 175.351562 173.769531 172.332031 176.78125 172.332031 180.472656 C 172.332031 184.164062 175.351562 187.175781 179.050781 187.175781 L 209.398438 187.175781 C 213.097656 187.175781 216.117188 184.164062 216.117188 180.472656 C 216.117188 176.78125 213.097656 173.769531 209.398438 173.769531 Z M 179.050781 173.769531 " fill-opacity="1" fill-rule="nonzero"/><path fill="#009cff" d="M 173.011719 215.574219 C 172.558594 215.574219 172.105469 215.5 171.652344 215.347656 C 170.597656 214.972656 169.691406 214.21875 169.160156 213.164062 C 168.632812 212.109375 168.558594 210.980469 168.933594 209.925781 L 176.257812 188.082031 C 176.484375 187.328125 177.238281 186.953125 177.992188 187.027344 C 178.296875 187.101562 178.671875 187.101562 179.050781 187.101562 L 183.503906 187.101562 C 184.03125 187.101562 184.484375 187.328125 184.789062 187.78125 C 185.089844 188.15625 185.164062 188.683594 185.015625 189.136719 L 177.164062 212.636719 C 176.558594 214.371094 174.898438 215.574219 173.011719 215.574219 Z M 178.824219 190.191406 L 171.878906 210.90625 C 171.804688 211.207031 171.804688 211.507812 171.953125 211.808594 C 172.105469 212.109375 172.332031 212.335938 172.632812 212.410156 C 173.238281 212.636719 173.917969 212.261719 174.144531 211.65625 L 181.316406 190.191406 L 178.976562 190.191406 C 178.976562 190.191406 178.898438 190.191406 178.824219 190.191406 Z M 178.824219 190.191406 " fill-opacity="1" fill-rule="nonzero"/><path fill="#009cff" d="M 215.363281 215.574219 C 213.550781 215.574219 211.890625 214.371094 211.285156 212.636719 L 203.433594 189.136719 C 203.285156 188.683594 203.359375 188.15625 203.660156 187.78125 C 203.960938 187.402344 204.414062 187.101562 204.945312 187.101562 L 209.398438 187.101562 C 209.777344 187.101562 210.078125 187.101562 210.453125 187.027344 C 211.210938 186.875 211.964844 187.328125 212.191406 188.082031 L 219.515625 209.925781 C 219.890625 210.980469 219.816406 212.183594 219.289062 213.164062 C 218.757812 214.21875 217.929688 214.972656 216.796875 215.347656 C 216.269531 215.5 215.816406 215.574219 215.363281 215.574219 Z M 207.058594 190.191406 L 214.230469 211.65625 C 214.457031 212.261719 215.136719 212.636719 215.738281 212.410156 C 216.042969 212.335938 216.269531 212.109375 216.417969 211.808594 C 216.570312 211.507812 216.570312 211.207031 216.492188 210.90625 L 209.550781 190.191406 C 209.472656 190.191406 209.398438 190.191406 209.324219 190.191406 Z M 207.058594 190.191406 " fill-opacity="1" fill-rule="nonzero"/><path fill="#009cff" d="M 213.699219 174.976562 C 213.398438 174.976562 213.171875 174.898438 212.871094 174.75 C 211.8125 174.144531 210.605469 173.769531 209.398438 173.769531 L 198.375 173.769531 C 197.695312 173.769531 197.09375 173.316406 196.867188 172.640625 L 186.902344 134.601562 C 186.75 134.148438 186.902344 133.621094 187.203125 133.246094 C 187.503906 132.867188 187.957031 132.640625 188.410156 132.640625 L 200.414062 132.640625 C 201.09375 132.640625 201.773438 133.09375 201.925781 133.773438 C 202 133.996094 202.753906 136.484375 206.152344 136.484375 C 209.699219 136.484375 210.378906 133.773438 210.378906 133.773438 C 210.53125 133.09375 211.210938 132.640625 211.890625 132.640625 L 223.890625 132.640625 C 224.34375 132.640625 224.796875 132.867188 225.101562 133.246094 C 225.402344 133.621094 225.476562 134.148438 225.402344 134.601562 L 215.136719 173.769531 C 214.984375 174.222656 214.683594 174.597656 214.230469 174.824219 C 214.078125 174.898438 213.851562 174.976562 213.699219 174.976562 Z M 199.585938 170.679688 L 209.398438 170.679688 C 210.53125 170.679688 211.585938 170.832031 212.644531 171.207031 L 221.929688 135.804688 L 212.945312 135.804688 C 212.039062 137.539062 209.925781 139.722656 206.152344 139.722656 C 202.378906 139.722656 200.261719 137.613281 199.359375 135.804688 L 190.375 135.804688 Z M 199.585938 170.679688 " fill-opacity="1" fill-rule="nonzero"/><path fill="#009cff" d="M 155.347656 199.53125 L 114.28125 199.53125 C 113.675781 199.53125 113.148438 199.230469 112.921875 198.703125 C 106.804688 186.800781 103.710938 173.996094 103.710938 160.511719 C 103.710938 159.683594 104.390625 158.929688 105.296875 158.929688 L 159.574219 158.929688 C 160.40625 158.929688 161.160156 159.609375 161.160156 160.511719 L 161.160156 193.804688 C 161.085938 196.96875 158.515625 199.53125 155.347656 199.53125 Z M 115.1875 196.367188 L 155.347656 196.367188 C 156.78125 196.367188 157.988281 195.238281 157.988281 193.730469 L 157.988281 161.945312 L 106.804688 161.945312 C 106.957031 174.144531 109.824219 185.671875 115.1875 196.367188 Z M 115.1875 196.367188 " fill-opacity="1" fill-rule="nonzero"/><path fill="#009cff" d="M 141.304688 172.5625 L 106.203125 172.5625 C 105.371094 172.5625 104.617188 171.886719 104.617188 170.980469 L 104.617188 160.511719 C 104.617188 159.683594 105.296875 158.929688 106.203125 158.929688 L 141.304688 158.929688 C 142.136719 158.929688 142.890625 159.609375 142.890625 160.511719 L 142.890625 170.980469 C 142.890625 171.886719 142.136719 172.5625 141.304688 172.5625 Z M 107.789062 169.476562 L 139.796875 169.476562 L 139.796875 162.09375 L 107.789062 162.09375 Z M 107.789062 169.476562 " fill-opacity="1" fill-rule="nonzero"/><path fill="#009cff" d="M 123.792969 166.765625 C 122.207031 166.765625 121 165.484375 121 163.976562 C 121 162.394531 122.28125 161.191406 123.792969 161.191406 C 125.378906 161.191406 126.585938 162.46875 126.585938 163.976562 C 126.585938 165.484375 125.300781 166.765625 123.792969 166.765625 Z M 123.792969 163.601562 C 123.640625 163.601562 123.488281 163.75 123.488281 163.902344 C 123.488281 164.050781 123.640625 164.203125 123.792969 164.203125 C 123.941406 164.203125 124.09375 164.050781 124.09375 163.902344 C 124.09375 163.75 123.941406 163.601562 123.792969 163.601562 Z M 123.792969 163.601562 " fill-opacity="1" fill-rule="nonzero"/><path fill="#009cff" d="M 133.304688 162.019531 L 114.28125 162.019531 C 113.449219 162.019531 112.695312 161.339844 112.695312 160.4375 L 112.695312 160.210938 C 112.695312 154.109375 117.675781 149.214844 123.714844 149.214844 C 129.832031 149.214844 134.738281 154.183594 134.738281 160.210938 L 134.738281 160.511719 C 134.8125 161.339844 134.132812 162.019531 133.304688 162.019531 Z M 115.941406 158.929688 L 131.644531 158.929688 C 131.039062 155.164062 127.71875 152.300781 123.792969 152.300781 C 119.789062 152.300781 116.542969 155.164062 115.941406 158.929688 Z M 115.941406 158.929688 " fill-opacity="1" fill-rule="nonzero"/><path fill="#009cff" d="M 137.078125 134.074219 C 136.699219 134.074219 136.246094 133.921875 135.945312 133.621094 L 135.71875 133.394531 C 131.417969 129.101562 131.417969 122.097656 135.71875 117.804688 C 137.832031 115.695312 140.550781 114.5625 143.496094 114.5625 C 146.4375 114.5625 149.230469 115.695312 151.269531 117.804688 L 151.496094 118.027344 C 152.101562 118.632812 152.101562 119.609375 151.496094 120.214844 L 138.058594 133.621094 C 137.910156 133.921875 137.457031 134.074219 137.078125 134.074219 Z M 143.644531 117.726562 C 141.53125 117.726562 139.492188 118.554688 138.058594 120.0625 C 135.265625 122.851562 134.964844 127.21875 137.230469 130.308594 L 148.324219 119.234375 C 146.890625 118.179688 145.304688 117.726562 143.644531 117.726562 Z M 143.644531 117.726562 " fill-opacity="1" fill-rule="nonzero"/><path fill="#009cff" d="M 148.628906 132.191406 C 148.25 132.191406 147.796875 132.039062 147.496094 131.738281 L 144.703125 128.949219 C 144.097656 128.347656 144.097656 127.371094 144.703125 126.765625 C 145.304688 126.164062 146.289062 126.164062 146.890625 126.765625 L 149.683594 129.554688 C 150.289062 130.15625 150.289062 131.136719 149.683594 131.738281 C 149.457031 132.039062 149.082031 132.191406 148.628906 132.191406 Z M 148.628906 132.191406 " fill-opacity="1" fill-rule="nonzero"/><path fill="#009cff" d="M 142.511719 138.292969 C 141.910156 138.292969 141.304688 137.914062 141.078125 137.3125 L 139.492188 133.320312 C 139.191406 132.566406 139.570312 131.664062 140.324219 131.285156 C 141.078125 130.984375 141.984375 131.363281 142.363281 132.113281 L 143.949219 136.105469 C 144.25 136.859375 143.871094 137.765625 143.117188 138.140625 C 142.890625 138.292969 142.738281 138.292969 142.511719 138.292969 Z M 142.511719 138.292969 " fill-opacity="1" fill-rule="nonzero"/><path fill="#009cff" d="M 154.742188 126.089844 C 154.515625 126.089844 154.367188 126.089844 154.140625 125.9375 L 150.136719 124.355469 C 149.308594 124.054688 148.929688 123.152344 149.308594 122.324219 C 149.609375 121.492188 150.515625 121.117188 151.347656 121.492188 L 155.347656 123.074219 C 156.175781 123.378906 156.554688 124.28125 156.175781 125.109375 C 155.949219 125.710938 155.347656 126.089844 154.742188 126.089844 Z M 154.742188 126.089844 " fill-opacity="1" fill-rule="nonzero"/><path fill="#009cff" d="M 123.792969 140.097656 C 121.375 140.097656 119.414062 138.140625 119.414062 135.730469 C 119.414062 133.320312 121.375 131.363281 123.792969 131.363281 C 126.207031 131.363281 128.171875 133.320312 128.171875 135.730469 C 128.171875 138.140625 126.207031 140.097656 123.792969 140.097656 Z M 123.792969 134.523438 C 123.113281 134.523438 122.507812 135.128906 122.507812 135.804688 C 122.507812 136.484375 123.113281 137.085938 123.792969 137.085938 C 124.472656 137.085938 125.074219 136.484375 125.074219 135.804688 C 125.074219 135.050781 124.472656 134.523438 123.792969 134.523438 Z M 123.792969 134.523438 " fill-opacity="1" fill-rule="nonzero"/><path fill="#009cff" d="M 123.792969 134.523438 C 123.414062 134.523438 123.035156 134.375 122.734375 134.074219 C 122.132812 133.46875 122.054688 132.492188 122.660156 131.890625 L 135.792969 117.878906 C 136.398438 117.277344 137.378906 117.199219 137.984375 117.804688 C 138.585938 118.40625 138.664062 119.386719 138.058594 119.988281 L 124.925781 133.996094 C 124.621094 134.300781 124.167969 134.523438 123.792969 134.523438 Z M 123.792969 134.523438 " fill-opacity="1" fill-rule="nonzero"/><path fill="#009cff" d="M 123.792969 152.300781 C 122.960938 152.300781 122.207031 151.625 122.207031 150.71875 L 122.207031 138.515625 C 122.207031 137.6875 122.886719 136.933594 123.792969 136.933594 C 124.621094 136.933594 125.378906 137.613281 125.378906 138.515625 L 125.378906 150.71875 C 125.300781 151.625 124.621094 152.300781 123.792969 152.300781 Z M 123.792969 152.300781 " fill-opacity="1" fill-rule="nonzero"/><path fill="#009cff" d="M 150.96875 215.574219 C 150.363281 215.574219 149.835938 215.273438 149.535156 214.671875 L 141.832031 198.625 C 141.609375 198.175781 141.609375 197.570312 141.910156 197.121094 C 142.210938 196.667969 142.664062 196.367188 143.191406 196.367188 L 150.894531 196.367188 C 151.722656 196.367188 152.476562 197.042969 152.476562 197.949219 L 152.476562 213.992188 C 152.476562 214.746094 151.949219 215.347656 151.269531 215.5 C 151.195312 215.574219 151.042969 215.574219 150.96875 215.574219 Z M 145.683594 199.53125 L 149.382812 207.214844 L 149.382812 199.53125 Z M 145.683594 199.53125 " fill-opacity="1" fill-rule="nonzero"/><path fill="#009cff" d="M 268.355469 145.824219 L 232.648438 145.824219 C 230.308594 145.824219 228.347656 143.867188 228.347656 141.53125 L 228.347656 90.007812 C 228.347656 89.480469 228.648438 88.953125 229.101562 88.652344 C 229.554688 88.351562 230.15625 88.351562 230.6875 88.652344 C 232.574219 89.78125 234.460938 90.988281 236.273438 92.34375 C 236.648438 92.644531 236.953125 93.097656 236.953125 93.625 L 236.953125 137.3125 L 267.074219 137.3125 C 267.753906 137.3125 268.355469 137.765625 268.582031 138.441406 C 269.109375 140.25 269.5625 142.132812 269.941406 144.015625 C 270.015625 144.46875 269.941406 144.921875 269.640625 145.296875 C 269.261719 145.597656 268.808594 145.824219 268.355469 145.824219 Z M 231.441406 92.796875 L 231.441406 141.53125 C 231.441406 142.207031 231.96875 142.734375 232.648438 142.734375 L 266.394531 142.734375 C 266.242188 141.90625 266.015625 141.152344 265.789062 140.324219 L 235.441406 140.324219 C 234.613281 140.324219 233.855469 139.648438 233.855469 138.742188 L 233.855469 94.375 C 233.101562 93.851562 232.273438 93.324219 231.441406 92.796875 Z M 231.441406 92.796875 " fill-opacity="1" fill-rule="nonzero"/><g fill="#009cff" fill-opacity="1"><g transform="translate(14.216062, 272.171619)"><g><path d="M 26.53125 -22.3125 L 26.53125 0 L 22.0625 0 L 22.0625 -14.515625 L 16.078125 0 L 12.6875 0 L 6.6875 -14.515625 L 6.6875 0 L 2.203125 0 L 2.203125 -22.3125 L 7.28125 -22.3125 L 14.390625 -5.71875 L 21.484375 -22.3125 Z M 26.53125 -22.3125 "/></g></g></g><g fill="#009cff" fill-opacity="1"><g transform="translate(55.739156, 272.171619)"><g><path d="M 12.5625 0.21875 C 10.476562 0.21875 8.5625 -0.269531 6.8125 -1.25 C 5.0625 -2.226562 3.675781 -3.582031 2.65625 -5.3125 C 1.632812 -7.050781 1.125 -9.019531 1.125 -11.21875 C 1.125 -13.394531 1.632812 -15.347656 2.65625 -17.078125 C 3.675781 -18.816406 5.0625 -20.175781 6.8125 -21.15625 C 8.5625 -22.144531 10.476562 -22.640625 12.5625 -22.640625 C 14.675781 -22.640625 16.597656 -22.144531 18.328125 -21.15625 C 20.066406 -20.175781 21.441406 -18.816406 22.453125 -17.078125 C 23.472656 -15.347656 23.984375 -13.394531 23.984375 -11.21875 C 23.984375 -9.019531 23.472656 -7.050781 22.453125 -5.3125 C 21.441406 -3.582031 20.0625 -2.226562 18.3125 -1.25 C 16.570312 -0.269531 14.65625 0.21875 12.5625 0.21875 Z M 12.5625 -3.765625 C 13.90625 -3.765625 15.085938 -4.066406 16.109375 -4.671875 C 17.128906 -5.285156 17.925781 -6.15625 18.5 -7.28125 C 19.082031 -8.414062 19.375 -9.726562 19.375 -11.21875 C 19.375 -12.707031 19.082031 -14.007812 18.5 -15.125 C 17.925781 -16.25 17.128906 -17.109375 16.109375 -17.703125 C 15.085938 -18.304688 13.90625 -18.609375 12.5625 -18.609375 C 11.21875 -18.609375 10.03125 -18.304688 9 -17.703125 C 7.96875 -17.109375 7.160156 -16.25 6.578125 -15.125 C 6.003906 -14.007812 5.71875 -12.707031 5.71875 -11.21875 C 5.71875 -9.726562 6.003906 -8.414062 6.578125 -7.28125 C 7.160156 -6.15625 7.96875 -5.285156 9 -4.671875 C 10.03125 -4.066406 11.21875 -3.765625 12.5625 -3.765625 Z M 12.5625 -3.765625 "/></g></g></g><g fill="#009cff" fill-opacity="1"><g transform="translate(93.618787, 272.171619)"><g><path d="M 10 -22.3125 C 12.34375 -22.3125 14.40625 -21.851562 16.1875 -20.9375 C 17.96875 -20.019531 19.34375 -18.710938 20.3125 -17.015625 C 21.28125 -15.328125 21.765625 -13.363281 21.765625 -11.125 C 21.765625 -8.882812 21.28125 -6.925781 20.3125 -5.25 C 19.34375 -3.582031 17.96875 -2.289062 16.1875 -1.375 C 14.40625 -0.457031 12.34375 0 10 0 L 2.203125 0 L 2.203125 -22.3125 Z M 9.84375 -3.796875 C 12.1875 -3.796875 14 -4.4375 15.28125 -5.71875 C 16.5625 -7 17.203125 -8.800781 17.203125 -11.125 C 17.203125 -13.445312 16.5625 -15.265625 15.28125 -16.578125 C 14 -17.890625 12.1875 -18.546875 9.84375 -18.546875 L 6.6875 -18.546875 L 6.6875 -3.796875 Z M 9.84375 -3.796875 "/></g></g></g><g fill="#009cff" fill-opacity="1"><g transform="translate(129.325135, 272.171619)"><g><path d="M 6.6875 -18.703125 L 6.6875 -13.109375 L 14.1875 -13.109375 L 14.1875 -9.5625 L 6.6875 -9.5625 L 6.6875 -3.640625 L 15.15625 -3.640625 L 15.15625 0 L 2.203125 0 L 2.203125 -22.34375 L 15.15625 -22.34375 L 15.15625 -18.703125 Z M 6.6875 -18.703125 "/></g></g></g><g fill="#009cff" fill-opacity="1"><g transform="translate(159.11886, 272.171619)"><g><path d="M 13.71875 0 L 8.796875 -8.703125 L 6.6875 -8.703125 L 6.6875 0 L 2.203125 0 L 2.203125 -22.3125 L 10.578125 -22.3125 C 12.304688 -22.3125 13.773438 -22.003906 14.984375 -21.390625 C 16.203125 -20.785156 17.113281 -19.96875 17.71875 -18.9375 C 18.332031 -17.90625 18.640625 -16.75 18.640625 -15.46875 C 18.640625 -14 18.210938 -12.671875 17.359375 -11.484375 C 16.503906 -10.304688 15.238281 -9.492188 13.5625 -9.046875 L 18.890625 0 Z M 6.6875 -12.046875 L 10.421875 -12.046875 C 11.640625 -12.046875 12.546875 -12.335938 13.140625 -12.921875 C 13.734375 -13.515625 14.03125 -14.332031 14.03125 -15.375 C 14.03125 -16.394531 13.734375 -17.1875 13.140625 -17.75 C 12.546875 -18.320312 11.640625 -18.609375 10.421875 -18.609375 L 6.6875 -18.609375 Z M 6.6875 -12.046875 "/></g></g></g><g fill="#009cff" fill-opacity="1"><g transform="translate(192.396227, 272.171619)"><g><path d="M 21.296875 0 L 16.8125 0 L 6.6875 -15.3125 L 6.6875 0 L 2.203125 0 L 2.203125 -22.34375 L 6.6875 -22.34375 L 16.8125 -7 L 16.8125 -22.34375 L 21.296875 -22.34375 Z M 21.296875 0 "/></g></g></g><g fill="#009cff" fill-opacity="1"><g transform="translate(228.677863, 272.171619)"><g><path d="M 20.71875 -22.3125 L 20.71875 0 L 16.234375 0 L 16.234375 -9.5 L 6.6875 -9.5 L 6.6875 0 L 2.203125 0 L 2.203125 -22.3125 L 6.6875 -22.3125 L 6.6875 -13.140625 L 16.234375 -13.140625 L 16.234375 -22.3125 Z M 20.71875 -22.3125 "/></g></g></g><g fill="#009cff" fill-opacity="1"><g transform="translate(264.384211, 272.171619)"><g><path d="M 12.5625 0.21875 C 10.476562 0.21875 8.5625 -0.269531 6.8125 -1.25 C 5.0625 -2.226562 3.675781 -3.582031 2.65625 -5.3125 C 1.632812 -7.050781 1.125 -9.019531 1.125 -11.21875 C 1.125 -13.394531 1.632812 -15.347656 2.65625 -17.078125 C 3.675781 -18.816406 5.0625 -20.175781 6.8125 -21.15625 C 8.5625 -22.144531 10.476562 -22.640625 12.5625 -22.640625 C 14.675781 -22.640625 16.597656 -22.144531 18.328125 -21.15625 C 20.066406 -20.175781 21.441406 -18.816406 22.453125 -17.078125 C 23.472656 -15.347656 23.984375 -13.394531 23.984375 -11.21875 C 23.984375 -9.019531 23.472656 -7.050781 22.453125 -5.3125 C 21.441406 -3.582031 20.0625 -2.226562 18.3125 -1.25 C 16.570312 -0.269531 14.65625 0.21875 12.5625 0.21875 Z M 12.5625 -3.765625 C 13.90625 -3.765625 15.085938 -4.066406 16.109375 -4.671875 C 17.128906 -5.285156 17.925781 -6.15625 18.5 -7.28125 C 19.082031 -8.414062 19.375 -9.726562 19.375 -11.21875 C 19.375 -12.707031 19.082031 -14.007812 18.5 -15.125 C 17.925781 -16.25 17.128906 -17.109375 16.109375 -17.703125 C 15.085938 -18.304688 13.90625 -18.609375 12.5625 -18.609375 C 11.21875 -18.609375 10.03125 -18.304688 9 -17.703125 C 7.96875 -17.109375 7.160156 -16.25 6.578125 -15.125 C 6.003906 -14.007812 5.71875 -12.707031 5.71875 -11.21875 C 5.71875 -9.726562 6.003906 -8.414062 6.578125 -7.28125 C 7.160156 -6.15625 7.96875 -5.285156 9 -4.671875 C 10.03125 -4.066406 11.21875 -3.765625 12.5625 -3.765625 Z M 12.5625 -3.765625 "/></g></g></g><g fill="#009cff" fill-opacity="1"><g transform="translate(302.263842, 272.171619)"><g><path d="M 26.53125 -22.3125 L 26.53125 0 L 22.0625 0 L 22.0625 -14.515625 L 16.078125 0 L 12.6875 0 L 6.6875 -14.515625 L 6.6875 0 L 2.203125 0 L 2.203125 -22.3125 L 7.28125 -22.3125 L 14.390625 -5.71875 L 21.484375 -22.3125 Z M 26.53125 -22.3125 "/></g></g></g><g fill="#009cff" fill-opacity="1"><g transform="translate(343.786937, 272.171619)"><g><path d="M 6.6875 -18.703125 L 6.6875 -13.109375 L 14.1875 -13.109375 L 14.1875 -9.5625 L 6.6875 -9.5625 L 6.6875 -3.640625 L 15.15625 -3.640625 L 15.15625 0 L 2.203125 0 L 2.203125 -22.34375 L 15.15625 -22.34375 L 15.15625 -18.703125 Z M 6.6875 -18.703125 "/></g></g></g><g fill="#009cff" fill-opacity="1"><g transform="translate(107.634265, 300.81114)"><g><path d="M 10.347656 -9.058594 L 8.519531 -9.058594 L 5.855469 -0.957031 L 3.175781 -9.058594 L 1.3125 -9.058594 L 1.3125 0 L 2.441406 0 L 2.441406 -4.660156 C 2.441406 -5.777344 2.441406 -7.023438 2.414062 -8.007812 C 2.703125 -7.039062 3.125 -5.777344 3.492188 -4.699219 L 5.121094 0 L 6.539062 0 L 8.140625 -4.675781 C 8.519531 -5.777344 8.941406 -7.050781 9.242188 -8.035156 C 9.21875 -7.050781 9.21875 -5.789062 9.21875 -4.660156 L 9.21875 0 L 10.347656 0 Z M 10.347656 -9.058594 "/></g></g></g><g fill="#009cff" fill-opacity="1"><g transform="translate(123.534702, 300.81114)"><g><path d="M 4.898438 -9.242188 C 2.140625 -9.242188 0.617188 -7.300781 0.617188 -4.53125 C 0.617188 -1.773438 2.140625 0.183594 4.898438 0.183594 C 7.65625 0.183594 9.179688 -1.773438 9.179688 -4.53125 C 9.179688 -7.300781 7.65625 -9.242188 4.898438 -9.242188 Z M 4.898438 -0.710938 C 2.992188 -0.710938 1.878906 -2.179688 1.878906 -4.53125 C 1.878906 -6.894531 2.992188 -8.351562 4.898438 -8.351562 C 6.800781 -8.351562 7.917969 -6.894531 7.917969 -4.53125 C 7.917969 -2.179688 6.800781 -0.710938 4.898438 -0.710938 Z M 4.898438 -0.710938 "/></g></g></g><g fill="#009cff" fill-opacity="1"><g transform="translate(137.741355, 300.81114)"><g><path d="M 5.226562 -9.007812 C 4.765625 -9.058594 4.554688 -9.058594 4.070312 -9.058594 L 1.3125 -9.058594 L 1.3125 0 L 4.003906 0 C 4.492188 0 4.699219 0 5.160156 -0.0507812 C 7.261719 -0.316406 8.808594 -1.96875 8.808594 -4.636719 C 8.808594 -7.339844 7.328125 -8.746094 5.226562 -9.007812 Z M 5.042969 -0.984375 C 4.753906 -0.933594 4.410156 -0.917969 3.9375 -0.917969 L 2.441406 -0.917969 L 2.441406 -8.140625 L 4.003906 -8.140625 C 4.476562 -8.140625 4.820312 -8.128906 5.109375 -8.074219 C 6.644531 -7.824219 7.574219 -6.644531 7.574219 -4.636719 C 7.574219 -2.496094 6.578125 -1.234375 5.042969 -0.984375 Z M 5.042969 -0.984375 "/></g></g></g><g fill="#009cff" fill-opacity="1"><g transform="translate(151.580371, 300.81114)"><g><path d="M 7.339844 -0.917969 L 2.441406 -0.917969 L 2.441406 -4.070312 L 6.8125 -4.070312 L 6.8125 -4.988281 L 2.441406 -4.988281 L 2.441406 -8.140625 L 7.207031 -8.140625 L 7.207031 -9.058594 L 1.3125 -9.058594 L 1.3125 0 L 7.339844 0 Z M 7.339844 -0.917969 "/></g></g></g><g fill="#009cff" fill-opacity="1"><g transform="translate(163.81753, 300.81114)"><g><path d="M 7.273438 -2.375 C 7.195312 -3.28125 6.839844 -4.109375 6.105469 -4.449219 C 6.945312 -4.714844 7.71875 -5.394531 7.71875 -6.589844 C 7.71875 -8.113281 6.773438 -8.835938 5.460938 -9.007812 C 5.054688 -9.058594 4.738281 -9.058594 4.28125 -9.058594 L 1.3125 -9.058594 L 1.3125 0 L 2.441406 0 L 2.441406 -3.898438 L 4.148438 -3.898438 C 4.359375 -3.898438 4.582031 -3.898438 4.792969 -3.886719 C 5.683594 -3.820312 6.039062 -3.203125 6.144531 -2.269531 C 6.261719 -1.15625 6.382812 -0.578125 6.628906 0 L 7.878906 0 C 7.511719 -0.484375 7.378906 -1.195312 7.273438 -2.375 Z M 2.441406 -4.820312 L 2.441406 -8.140625 L 4.28125 -8.140625 C 4.6875 -8.140625 4.9375 -8.128906 5.1875 -8.089844 C 6.027344 -7.957031 6.511719 -7.496094 6.511719 -6.484375 C 6.511719 -5.460938 5.894531 -4.921875 5.054688 -4.84375 C 4.804688 -4.820312 4.582031 -4.820312 4.175781 -4.820312 Z M 2.441406 -4.820312 "/></g></g></g><g fill="#009cff" fill-opacity="1"><g transform="translate(176.47485, 300.81114)"><g><path d="M 8.402344 0 L 8.375 -9.058594 L 7.273438 -9.058594 L 7.273438 -4.53125 C 7.273438 -3.464844 7.289062 -2.167969 7.3125 -1.101562 L 3.046875 -9.058594 L 1.3125 -9.058594 L 1.3125 0 L 2.441406 0 L 2.441406 -4.53125 C 2.441406 -5.59375 2.429688 -6.894531 2.402344 -7.957031 L 6.671875 0 Z M 8.402344 0 "/></g></g></g><g fill="#009cff" fill-opacity="1"><g transform="translate(190.432038, 300.81114)"><g/></g></g><g fill="#009cff" fill-opacity="1"><g transform="translate(197.797961, 300.81114)"><g><path d="M 5.226562 -9.007812 C 4.765625 -9.058594 4.554688 -9.058594 4.070312 -9.058594 L 1.3125 -9.058594 L 1.3125 0 L 4.003906 0 C 4.492188 0 4.699219 0 5.160156 -0.0507812 C 7.261719 -0.316406 8.808594 -1.96875 8.808594 -4.636719 C 8.808594 -7.339844 7.328125 -8.746094 5.226562 -9.007812 Z M 5.042969 -0.984375 C 4.753906 -0.933594 4.410156 -0.917969 3.9375 -0.917969 L 2.441406 -0.917969 L 2.441406 -8.140625 L 4.003906 -8.140625 C 4.476562 -8.140625 4.820312 -8.128906 5.109375 -8.074219 C 6.644531 -7.824219 7.574219 -6.644531 7.574219 -4.636719 C 7.574219 -2.496094 6.578125 -1.234375 5.042969 -0.984375 Z M 5.042969 -0.984375 "/></g></g></g><g fill="#009cff" fill-opacity="1"><g transform="translate(211.636977, 300.81114)"><g><path d="M 7.339844 -0.917969 L 2.441406 -0.917969 L 2.441406 -4.070312 L 6.8125 -4.070312 L 6.8125 -4.988281 L 2.441406 -4.988281 L 2.441406 -8.140625 L 7.207031 -8.140625 L 7.207031 -9.058594 L 1.3125 -9.058594 L 1.3125 0 L 7.339844 0 Z M 7.339844 -0.917969 "/></g></g></g><g fill="#009cff" fill-opacity="1"><g transform="translate(223.874136, 300.81114)"><g><path d="M 4.121094 -9.242188 C 2.457031 -9.242188 1.101562 -8.257812 1.101562 -6.695312 C 1.101562 -5.199219 2.21875 -4.554688 3.820312 -4.1875 C 5.410156 -3.820312 6.039062 -3.320312 6.039062 -2.21875 C 6.039062 -1.273438 5.199219 -0.710938 4.164062 -0.710938 C 2.980469 -0.710938 2.152344 -1.378906 1.890625 -2.574219 L 0.683594 -2.574219 C 0.878906 -0.828125 2.140625 0.183594 4.136719 0.183594 C 5.882812 0.183594 7.246094 -0.839844 7.246094 -2.429688 C 7.246094 -3.964844 6.25 -4.78125 4.253906 -5.238281 C 2.875 -5.554688 2.3125 -5.972656 2.3125 -6.957031 C 2.3125 -7.902344 3.074219 -8.351562 4.03125 -8.351562 C 5.171875 -8.351562 5.84375 -7.695312 5.949219 -6.550781 L 7.15625 -6.550781 C 6.984375 -8.101562 6 -9.242188 4.121094 -9.242188 Z M 4.121094 -9.242188 "/></g></g></g><g fill="#009cff" fill-opacity="1"><g transform="translate(236.085033, 300.81114)"><g><path d="M 2.441406 0 L 2.441406 -9.058594 L 1.3125 -9.058594 L 1.3125 0 Z M 2.441406 0 "/></g></g></g><g fill="#009cff" fill-opacity="1"><g transform="translate(244.081197, 300.81114)"><g><path d="M 5.238281 -4.371094 L 5.238281 -3.453125 L 7.351562 -3.453125 C 7.351562 -1.839844 6.261719 -0.710938 4.792969 -0.710938 C 3.007812 -0.710938 1.878906 -2.3125 1.878906 -4.542969 C 1.878906 -6.734375 3.019531 -8.351562 4.871094 -8.351562 C 6.382812 -8.351562 7.183594 -7.472656 7.445312 -6.171875 L 7.472656 -6.039062 L 8.601562 -6.039062 L 8.585938 -6.171875 C 8.402344 -7.945312 7.195312 -9.242188 4.898438 -9.242188 C 2.324219 -9.242188 0.617188 -7.246094 0.617188 -4.492188 C 0.617188 -1.839844 2.085938 0.183594 4.726562 0.183594 C 5.765625 0.183594 6.566406 -0.15625 7.078125 -0.734375 L 7.484375 -1.574219 L 7.484375 0 L 8.480469 0 L 8.480469 -4.371094 Z M 5.238281 -4.371094 "/></g></g></g><g fill="#009cff" fill-opacity="1"><g transform="translate(257.933353, 300.81114)"><g><path d="M 8.402344 0 L 8.375 -9.058594 L 7.273438 -9.058594 L 7.273438 -4.53125 C 7.273438 -3.464844 7.289062 -2.167969 7.3125 -1.101562 L 3.046875 -9.058594 L 1.3125 -9.058594 L 1.3125 0 L 2.441406 0 L 2.441406 -4.53125 C 2.441406 -5.59375 2.429688 -6.894531 2.402344 -7.957031 L 6.671875 0 Z M 8.402344 0 "/></g></g></g></svg>